{
    "asset" : {
        "generator" : "Khronos glTF Blender I/O v1.2.75",
        "version" : "2.0"
    },
    "scene" : 0,
    "scenes" : [
        {
            "name" : "Scene",
            "nodes" : [
                0
            ]
        }
    ],
    "nodes" : [
        {
            "mesh" : 0,
            "name" : "white_logo",
            "rotation" : [
                0.7071067690849304,
                0,
                0,
                0.7071067690849304
            ],
            "scale" : [
                29.533226013183594,
                29.533226013183594,
                29.533226013183594
            ],
            "translation" : [
                -0.024137578904628754,
                0,
                0
            ]
        }
    ],
    "materials" : [
        {
            "doubleSided" : true,
            "emissiveFactor" : [
                0,
                0,
                0
            ],
            "name" : "Material",
            "pbrMetallicRoughness" : {
                "baseColorTexture" : {
                    "index" : 0,
                    "texCoord" : 0
                },
                "metallicFactor" : 0,
                "roughnessFactor" : 0.4000000059604645
            }
        }
    ],
    "meshes" : [
        {
            "name" : "white_logo",
            "primitives" : [
                {
                    "attributes" : {
                        "POSITION" : 0,
                        "NORMAL" : 1,
                        "TEXCOORD_0" : 2
                    },
                    "indices" : 3,
                    "material" : 0
                }
            ]
        }
    ],
    "textures" : [
        {
            "source" : 0
        }
    ],
    "images" : [
        {
            "mimeType" : "image/png",
            "name" : "Material Base Color",
            "uri" : "Material%20Base%20Color.png"
        }
    ],
    "accessors" : [
        {
            "bufferView" : 0,
            "componentType" : 5126,
            "count" : 6443,
            "max" : [
                0.09404560923576355,
                0.016229672357439995,
                0.07572369277477264
            ],
            "min" : [
                -0.08842326700687408,
                6.528093177138317e-09,
                -0.12973645329475403
            ],
            "type" : "VEC3"
        },
        {
            "bufferView" : 1,
            "componentType" : 5126,
            "count" : 6443,
            "type" : "VEC3"
        },
        {
            "bufferView" : 2,
            "componentType" : 5126,
            "count" : 6443,
            "type" : "VEC2"
        },
        {
            "bufferView" : 3,
            "componentType" : 5123,
            "count" : 11688,
            "type" : "SCALAR"
        }
    ],
    "bufferViews" : [
        {
            "buffer" : 0,
            "byteLength" : 77316,
            "byteOffset" : 0
        },
        {
            "buffer" : 0,
            "byteLength" : 77316,
            "byteOffset" : 77316
        },
        {
            "buffer" : 0,
            "byteLength" : 51544,
            "byteOffset" : 154632
        },
        {
            "buffer" : 0,
            "byteLength" : 23376,
            "byteOffset" : 206176
        }
    ],
    "buffers" : [
        {
            "byteLength" : 229552,
            "uri" : "Hackclub.bin"
        }
    ]
}
